#!OML:ASF E:\acrobat2\Project_11_07_03\Capture day 1\Session 1\Acrobat.ASF
:FULLY-SPECIFIED
:DEGREES
629
root 10.7581 6.03685 11.6572 -88.4481 4.29794 178.668
lowerback -4.76022 -3.37456 4.87799
upperback 0.530453 -4.8219 0.63235
thorax 2.86725 -2.33576 -2.40311
lowerneck 3.93984 -14.7113 -10.839
upperneck -28.6177 -15.5581 29.6456
head -5.34273 -8.34416 12.2541
rclavicle 2.70347e-014 -1.25483e-014
rhumerus 31.8449 -34.0423 -32.3031
rradius 120.07
rwrist -23.1852
rhand -19.5517 -42.5626
rfingers 7.12502
rthumb 6.77263 -72.4343
lclavicle 2.70347e-014 -1.25483e-014
lhumerus 17.1078 48.6238 2.13928
lradius 108.376
lwrist 34.1642
lhand -5.23218 -25.4001
lfingers 7.12502
lthumb 20.5703 3.53007
rfemur 1.51424 15.6146 -9.1843
rtibia -1.07344e-014
rfoot 31.3881 -24.1305
rtoes 29.35
lfemur -11.6595 -21.6419 2.55575
ltibia 18.7378
lfoot 37.4303 11.0507
ltoes 17.0385
630
root 10.7575 6.03699 11.6574 -88.4552 4.2885 178.663
lowerback -4.75295 -3.37521 4.89205
upperback 0.540333 -4.82369 0.633808
thorax 2.87228 -2.33621 -2.40938
lowerneck 3.88203 -14.7142 -10.8427
upperneck -28.5748 -15.5637 29.6509
head -5.3167 -8.34363 12.2444
rclavicle 2.54444e-014 -5.92627e-015
rhumerus 31.8573 -34.0589 -32.3071
rradius 120.071
rwrist -23.1894
rhand -19.5339 -42.6098
rfingers 7.12502
rthumb 6.78974 -72.481
lclavicle 2.54444e-014 -5.92627e-015
lhumerus 17.1216 48.6487 2.14399
lradius 108.361
lwrist 34.1704
lhand -5.22662 -25.4191
lfingers 7.12502
lthumb 20.5757 3.5105
rfemur 1.52156 15.6137 -9.17261
rtibia 4.77083e-015
rfoot 31.3753 -24.1281
rtoes 29.4014
lfemur -11.6475 -21.6685 2.56711
ltibia 18.7209
lfoot 37.4319 11.14
ltoes 17.4031
631
root 10.7571 6.03724 11.6579 -88.4609 4.28004 178.659
lowerback -4.74659 -3.37495 4.90382
upperback 0.549737 -4.82415 0.63571
thorax 2.87765 -2.33602 -2.41389
lowerneck 3.8184 -14.7207 -10.8496
upperneck -28.5233 -15.5767 29.6555
head -5.28514 -8.34627 12.2326
rclavicle -5.40694e-014 -3.63403e-014
rhumerus 31.8721 -34.0711 -32.3061
rradius 120.065
rwrist -23.1864
rhand -19.5203 -42.6365
rfingers 7.12502
rthumb 6.80289 -72.5072
lclavicle -5.40694e-014 -3.63403e-014
lhumerus 17.1335 48.6687 2.15054
lradius 108.353
lwrist 34.1789
lhand -5.1938 -25.4507
lfingers 7.12502
lthumb 20.6072 3.47545
rfemur 1.52631 15.6133 -9.16364
rtibia 0
rfoot 31.3348 -24.1215
rtoes 29.4918
lfemur -11.6367 -21.6907 2.5782
ltibia 18.7018
lfoot 37.4406 11.2316
ltoes 17.8357
632
root 10.7566 6.03745 11.6584 -88.4648 4.27477 178.657
lowerback -4.74197 -3.37332 4.91265
upperback 0.558044 -4.82263 0.636745
thorax 2.88316 -2.33489 -2.41764
lowerneck 3.75061 -14.7328 -10.8527
upperneck -28.4664 -15.6002 29.6521
head -5.25045 -8.35355 12.2152
rclavicle -3.97569e-014 3.54085e-015
rhumerus 31.8888 -34.0768 -32.2947
rradius 120.051
rwrist -23.1749
rhand -19.5223 -42.6467
rfingers 7.12502
rthumb 6.801 -72.5175
lclavicle -3.97569e-014 3.54085e-015
lhumerus 17.1493 48.6819 2.16688
lradius 108.352
lwrist 34.1889
lhand -5.16498 -25.4757
lfingers 7.12502
lthumb 20.6349 3.44741
rfemur 1.52782 15.6135 -9.15795
rtibia 2.0276e-014
rfoot 31.3158 -24.091
rtoes 29.5333
lfemur -11.6293 -21.7038 2.58522
ltibia 18.6867
lfoot 37.4552 11.3016
ltoes 18.2244
633
root 10.7562 6.03752 11.6589 -88.4664 4.27144 178.656
lowerback -4.74048 -3.37028 4.92019
upperback 0.564174 -4.81923 0.637494
thorax 2.8884 -2.33286 -2.42099
lowerneck 3.69044 -14.7499 -10.8497
upperneck -28.4153 -15.6316 29.6419
head -5.21886 -8.36515 12.1953
rclavicle -1.11319e-014 3.31722e-015
rhumerus 31.9032 -34.0761 -32.2715
rradius 120.031
rwrist -23.1564
rhand -19.5403 -42.6446
rfingers 7.12502
rthumb 6.78359 -72.5159
lclavicle -1.11319e-014 3.31722e-015
lhumerus 17.169 48.6865 2.19302
lradius 108.353
lwrist 34.198
lhand -5.16255 -25.4883
lfingers 7.12502
lthumb 20.6372 3.43462
rfemur 1.52852 15.6128 -9.15603
rtibia 1.74931e-014
rfoot 31.2851 -24.0873
rtoes 29.6467
lfemur -11.6276 -21.7062 2.58942
ltibia 18.6793
lfoot 37.465 11.3371
ltoes 18.4408
